<svg width="602" height="720" viewBox="0 0 602 720" fill="none" xmlns="http://www.w3.org/2000/svg">
<rect width="602" height="720" fill="#C0C0C0"/>
<path d="M252.817 305.783L246.783 311.817L349.183 414.217L355.217 408.183L349.533 402.5C353.479 401.749 356.467 398.299 356.467 394.133V325.867C356.467 321.152 352.648 317.333 347.933 317.333H264.367L252.817 305.783ZM246.117 322.817C245.754 323.764 245.533 324.787 245.533 325.867V394.133C245.533 398.848 249.352 402.667 254.067 402.667H325.967L313.167 389.867H258.333V360L268.1 350.233C269.06 349.273 270.172 348.553 271.35 348.05L246.117 322.817ZM335.133 330.133C339.848 330.133 343.667 333.952 343.667 338.667C343.667 343.381 339.848 347.2 335.133 347.2C330.419 347.2 326.6 343.381 326.6 338.667C326.6 333.952 330.419 330.133 335.133 330.133ZM318.067 355.742C320.709 355.742 323.351 356.751 325.367 358.767L343.667 377.067V389.867H336.9L308.283 361.25L310.767 358.767C312.783 356.751 315.424 355.742 318.067 355.742Z" fill="black"/>
</svg>
